#define nokia_splash_width 84
#define nokia_splash_height 48
static unsigned char nokia_splash_bits[] = {
   0x00, 0x00, 0x00, 0x00, 0x00, 0x00, 0x00, 0x00, 0x00, 0x00, 0x00, 0x00,
   0x00, 0x00, 0x00, 0x00, 0x00, 0x00, 0x00, 0x00, 0x00, 0x00, 0x00, 0x00,
   0x00, 0x00, 0x00, 0x00, 0x00, 0x00, 0x00, 0x00, 0x00, 0x00, 0x00, 0x00,
   0x00, 0x00, 0x00, 0x00, 0x00, 0x00, 0x00, 0x00, 0x00, 0x03, 0x00, 0x00,
   0x00, 0x00, 0x00, 0x00, 0x00, 0x00, 0x00, 0x30, 0x07, 0x00, 0x00, 0x00,
   0x80, 0x01, 0x00, 0x00, 0x00, 0x00, 0x30, 0x03, 0xe0, 0x20, 0x00, 0x98,
   0x03, 0x04, 0x00, 0xc0, 0x00, 0x30, 0x03, 0xf8, 0x70, 0x00, 0xbc, 0x03,
   0x0e, 0x00, 0xc3, 0x00, 0x30, 0x03, 0x4c, 0xf0, 0x01, 0xb8, 0x01, 0x3e,
   0x00, 0xe3, 0x00, 0x30, 0x03, 0x06, 0xe0, 0x0f, 0xf0, 0x00, 0xfc, 0x01,
   0xe3, 0x00, 0x30, 0x03, 0x0e, 0x60, 0x3c, 0xf0, 0x00, 0x8c, 0x07, 0xe3,
   0x00, 0x30, 0x03, 0x1c, 0x60, 0x1f, 0xe0, 0x00, 0xec, 0x03, 0xe3, 0x00,
   0x30, 0x03, 0x38, 0xe0, 0x07, 0xe0, 0x00, 0xfc, 0x00, 0xe7, 0x00, 0x30,
   0x03, 0x70, 0xe0, 0x07, 0xe0, 0x00, 0xfc, 0x00, 0xf7, 0x00, 0x30, 0x03,
   0xe0, 0x60, 0x06, 0xe0, 0x01, 0xcc, 0x00, 0xf7, 0x00, 0x30, 0x03, 0xc0,
   0x60, 0x0c, 0xe0, 0x01, 0x8c, 0x01, 0xf7, 0x00, 0x70, 0x03, 0xc6, 0x60,
   0x0c, 0xb0, 0x03, 0x8c, 0x01, 0xff, 0x00, 0xe0, 0x03, 0xce, 0x60, 0x0c,
   0x30, 0x03, 0x8c, 0x01, 0xff, 0x00, 0xc0, 0x03, 0x6e, 0x60, 0x0c, 0x30,
   0x07, 0x8c, 0x81, 0xdf, 0x00, 0x00, 0x01, 0x78, 0x60, 0x06, 0x18, 0x0e,
   0xcc, 0x00, 0xdf, 0x00, 0x00, 0x00, 0x10, 0xe0, 0x03, 0x3c, 0x0e, 0x7c,
   0x00, 0xdf, 0x00, 0x00, 0x00, 0x00, 0xe0, 0x01, 0x18, 0x0e, 0x3c, 0x00,
   0xd8, 0x01, 0x00, 0x00, 0x00, 0x40, 0x00, 0x00, 0x00, 0x08, 0x00, 0xc0,
   0x00, 0x00, 0x00, 0x00, 0x00, 0x00, 0x00, 0x00, 0x00, 0x00, 0x00, 0x00,
   0x00, 0x00, 0x00, 0x00, 0x00, 0x00, 0x00, 0x00, 0x00, 0x00, 0x00, 0x00,
   0x00, 0x00, 0x00, 0x00, 0x00, 0x00, 0x00, 0x00, 0x00, 0x00, 0x00, 0x00,
   0x00, 0x00, 0x00, 0x00, 0x00, 0x00, 0x00, 0x00, 0x00, 0x00, 0x00, 0x00,
   0x00, 0x00, 0x00, 0x00, 0x00, 0x00, 0x00, 0x00, 0x00, 0x00, 0x00, 0x00,
   0x00, 0x00, 0x00, 0x00, 0x00, 0x00, 0x00, 0x00, 0x00, 0x00, 0x00, 0x00,
   0x00, 0x10, 0x00, 0x00, 0x00, 0x00, 0x30, 0x00, 0x00, 0x00, 0x00, 0x00,
   0x78, 0x00, 0x00, 0x00, 0x00, 0x78, 0x00, 0x00, 0x00, 0x00, 0x00, 0x90,
   0x00, 0x00, 0x00, 0x00, 0x68, 0x00, 0x00, 0x00, 0x00, 0x00, 0x10, 0x01,
   0x00, 0x00, 0x00, 0x08, 0x10, 0x00, 0x00, 0x40, 0x00, 0x10, 0x41, 0xf0,
   0x81, 0x00, 0x08, 0x10, 0x44, 0x88, 0x70, 0x00, 0x10, 0x41, 0xc0, 0x81,
   0x00, 0x78, 0x10, 0x6c, 0xd8, 0x50, 0x00, 0x10, 0xe1, 0xc0, 0xc0, 0x01,
   0x48, 0x10, 0x6c, 0xd8, 0xf0, 0x00, 0x90, 0xa1, 0x80, 0x40, 0x01, 0x48,
   0x10, 0x6c, 0xd8, 0x50, 0x00, 0x90, 0xa0, 0x81, 0x40, 0x03, 0x58, 0x10,
   0x7c, 0xf8, 0x10, 0x00, 0xd0, 0xf0, 0xc1, 0xe0, 0x03, 0x70, 0x10, 0x54,
   0xa8, 0xf0, 0x00, 0x70, 0xb0, 0x01, 0x60, 0x03, 0x00, 0x00, 0x40, 0x80,
   0x00, 0x00, 0x30, 0x00, 0x00, 0x00, 0x00, 0x00, 0x00, 0x00, 0x00, 0x00,
   0x00, 0x00, 0x00, 0x00, 0x00, 0x00, 0x00, 0x00, 0x00, 0x00, 0x00, 0x00,
   0x00, 0x00, 0x00, 0x00, 0x00, 0x00, 0x00, 0x00, 0x00, 0x00, 0x00, 0x00,
   0x00, 0x00, 0x00, 0x00, 0x00, 0x00, 0x00, 0x00, 0x00, 0x00, 0x00, 0x00,
   0x00, 0x00, 0x00, 0x00, 0x00, 0x00, 0x00, 0x00, 0x00, 0x00, 0x00, 0x00,
   0x00, 0x00, 0x00, 0x00, 0x00, 0x00, 0x00, 0x00, 0x00, 0x00, 0x00, 0x00,
   0x00, 0x00, 0x00, 0x00, 0x00, 0x00, 0x00, 0x00, 0x00, 0x00, 0x00, 0x00 };
